<svg xmlns="http://www.w3.org/2000/svg" xmlns:xlink="http://www.w3.org/1999/xlink" id="Calque_1" x="0px" y="0px" viewBox="0 0 527.5 567" style="enable-background:new 0 0 527.5 567;" xml:space="preserve"><style type="text/css">	.st0{fill:#FFD244;}	.st1{fill:#FFFFFF;}	.st2{fill:#503529;}	.st3{fill:none;}</style><rect x="0" class="st1" width="527.5" height="567"/><g>	<g>		<path class="st2" d="M97.5,369.1c-19.2,0-25.2-12.7-25.2-30.4V259h13.3v79.6c-0.2,8.4,1.2,18,13,18h4.7v12.5H97.5z"/>		<path class="st2" d="M166.1,297.8h13.3v71.3h-13.3v-12.7c-4.7,8.6-14.7,14.5-26.1,14.5c-18.6,0-35-15.7-35-37.6   c0-21.1,15.4-37.4,35.6-37.4c10.7,0,20.8,4.6,25.5,13V297.8z M166.1,333.3c0-14.7-12.4-24.9-24.3-24.9c-13,0-23.4,11.5-23.4,24.9   c0,13.6,10.4,25,23.5,25C154.7,358.4,166.1,347.9,166.1,333.3z"/>	</g>	<g>		<path class="st2" d="M341.6,327.8v41.2h-13.3v-40.5c0-11.9-6.6-19.9-17-19.9c-12.7-0.2-19.2,8.7-19.2,24.6v35.7h-13.3v-40.5   c0-12.1-6.6-19.9-16-19.9c-10.1,0-20.2,6.6-20.2,21.7v38.6h-13.3v-71.3h13.3v11c3.5-7.8,12.8-12.8,22.9-12.8   c10.4,0,19.4,5.5,23.5,15.3c6.6-12.8,17.7-15.3,24.9-15.3C331.8,295.9,341.6,307.8,341.6,327.8z"/>		<path class="st2" d="M354.9,271.5c0-5,4.3-8.9,9.3-8.9c5.2,0,9.5,3.8,9.5,8.9c0,5-4.3,8.9-9.5,8.9   C359.1,280.3,354.9,276.5,354.9,271.5z M357.6,369.1v-71.3h13.3v71.3H357.6z"/>		<path class="st2" d="M454.9,339.2h-58c2,12.7,11.1,19.2,23.4,19.2c8.7,0,16.6-4,20.8-11.1l11.5,4.6c-6.1,12.4-18.9,19.1-32.7,19.1   c-20.3,0-36.7-15.1-36.7-37.7c0-22.6,16.3-37.3,36.7-37.3c20.3,0,35.4,14.7,35.4,37.3C455.2,335.2,455.1,337.2,454.9,339.2z    M441.9,327.7c-1.7-12.2-10.4-19.2-22.1-19.2c-12.1,0-20.6,6.4-22.8,19.2H441.9z"/>	</g></g><g>	<g>		<path class="st2" d="M72.3,458.3c0-21.8,17.7-35.9,37.7-35.9c12.5,0,22.5,5.7,29,14.7l-14.6,10.2c-3.1-4.3-8.8-6.9-14.3-6.9   c-10.9,0-18.3,8-18.3,18c0,10.2,7.4,18.4,18.3,18.4c5.5,0,11.2-2.7,14.3-6.9l14.6,10.2c-6.5,9-16.5,14.7-29,14.7   C90,494.6,72.3,480.1,72.3,458.3z"/>		<path class="st2" d="M197.6,424.1h19.3v68.8h-19.3V483c-4.6,7.1-13.4,11.6-22.7,11.6c-19,0-33.1-14.7-33.1-36.1   c0-21.4,13.8-36.2,33.6-36.2c8.8,0,17.7,3.8,22.2,10.9V424.1z M180.9,399.8l-11.5,13h-14.3l16.1-24.5h19.4l16.2,24.5h-14.4   L180.9,399.8z M197,458.6c0-10.5-8.4-18.3-18-18.3c-10,0-17.5,8.2-17.5,18.3c0,9.6,7.5,18.1,17.7,18.1   C188.9,476.7,197,468.4,197,458.6z"/>		<path class="st2" d="M259.4,492.9c-19.6,0-29.5-11.8-29.5-32v-74.2h19.3v74c0,8.4,3.4,14.3,11.3,14.3h5.2v18H259.4z"/>		<path class="st2" d="M271.7,400.4c0-6.5,5.6-11.5,12.2-11.5c6.8,0,12.2,5,12.2,11.5c0,6.5-5.5,11.6-12.2,11.6   C277.2,412,271.7,406.8,271.7,400.4z M274.3,492.9v-68.8h19.3v68.8H274.3z"/>		<path class="st2" d="M374.3,455.2v37.7H355v-36.7c0-10.8-6.5-15.6-13.1-15.6c-6.9,0-15.5,3.7-15.5,16.2v36.1h-19.3v-68.8h19.3   v11.2c3.2-9,14-13,20.6-13C365,422.3,374.5,434.5,374.3,455.2z"/>		<path class="st2" d="M454.8,464.7h-51.7c2.1,8.1,8.5,12.8,17.7,12.8c7.1,0,13.8-3.2,18.1-8.1l11.2,11.3   c-6.5,8.7-18.4,13.8-30.5,13.8c-21.2,0-36.7-14.9-36.7-36.1c0-22.2,16.9-36.2,36.5-36.2c19.7,0,35.8,14,35.8,35.1   C455.2,459.3,455.1,461.7,454.8,464.7z M435.8,452.2c-0.6-8.1-7.2-13.3-15.9-13.3c-8,0-14.7,4-16.8,13.3H435.8z"/>	</g></g><g>	<path class="st0" d="M343.9,139.4c-6.4-6.3-16.8-9.5-31-9.5c-12.6,0-24.9,2.5-31.1,4.1c-3.1,0.7-6.1-1.6-6.2-4.7  c-1.4-52.2-34.8-56.2-45-56.2c-2.9,0-5.8,0.3-8.8,0.8c-34.5,6.2-50.8,29-51.4,71.9l0,3.2c0,5.9,4.8,10.8,10.7,10.8l3,0  c0,0,0.1,0,0.1,0c7.5,0,13.6-6.1,13.7-13.7c0.2-16.3,3-28.1,8.4-35c2.6-3.3,7.4-7.9,20.2-10.2c1.3-0.2,2.6-0.4,3.9-0.4  c4.3,0,7.8,1.4,10.3,4.1c4.3,4.6,6.9,13.6,7.2,25.4l0.5,25.3c0.1,6.4,6,11.2,12.3,10.1l21.9-6.3c9.1-2.3,16.3-3.5,23.6-3.1  c6.1,0.3,11.1,0.7,15.4,2.3c1.8,0.6,3.4,1.4,4.9,3.1c1.4,1.7,2.1,3,2.5,4.5c0.3,1,0.6,2.6-0.1,5.5c-1.6,6.9-7.4,16.2-17.3,27.6  c-4.7,5.4-4.5,13.4,0.4,18.5l2.6,2.6c2,2,4.7,3.2,7.5,3.2h0c2.8,0,5.4-1.1,7.3-3.1c1.1-1.1,2.1-2.2,3.1-3.3  C351.9,194.6,370.5,165.7,343.9,139.4z"/>	<path class="st0" d="M287.5,224.8c-2.3-3.9-7.1-5.5-11.3-3.8c-15.8,6.3-32.2,10.4-45.1,10.4c-8.2,0-11.2-2-11.3-2  c-2.3-1.3-4.3-2.9-6.2-5.1c-2.2-2.6-4.2-5.9-6-9.9c-3.1-6.9-5.5-16-7.1-27.1c-0.7-4.4-4.6-7.4-9-7l-4.7,0.5  c-3.9,0.4-7.5,2.5-9.9,5.6c-2.4,3.2-3.3,7.2-2.6,11.1c5.3,28.7,15.9,47.1,32.4,56c5.9,3.2,14.1,4.8,24.3,4.8  c16.8,0,37.6-4.5,57-12.4c2.5-1,4.4-3,5.2-5.6c0.8-2.6,0.5-5.3-0.9-7.6L287.5,224.8z"/></g><rect x="0" class="st3" width="527.5" height="567"/></svg>